<svg width="21" height="20" viewBox="0 0 21 20" fill="none" xmlns="http://www.w3.org/2000/svg">
<g id="entypo:chevron-left">
<path id="Vector" d="M7.88031 15.484C7.41467 15.048 7.37813 14.441 7.88031 13.908L11.7923 10L7.88031 6.092C7.37813 5.559 7.41467 4.951 7.88031 4.518C8.3449 4.082 9.13001 4.11 9.56641 4.518C10.0028 4.924 14.2666 9.213 14.2666 9.213C14.3771 9.31513 14.465 9.43755 14.5251 9.57294C14.5851 9.70832 14.616 9.85391 14.616 10.001C14.616 10.1481 14.5851 10.2937 14.5251 10.4291C14.465 10.5645 14.3771 10.6869 14.2666 10.789C14.2666 10.789 10.0028 15.076 9.56641 15.484C9.13001 15.893 8.3449 15.92 7.88031 15.484Z" fill="white"/>
</g>
</svg>
