<svg width="14" height="17" viewBox="0 0 14 17" fill="none" xmlns="http://www.w3.org/2000/svg">
<g id="Vector">
<path id="Vector_2" fill-rule="evenodd" clip-rule="evenodd" d="M10.5015 3.22847C11.737 3.94219 12.7249 5.01642 13.3328 6.30727C13.9408 7.59811 14.1397 9.04392 13.903 10.451C13.6663 11.8581 13.0053 13.1592 12.0085 14.1801C11.0117 15.201 9.72669 15.8929 8.32567 16.1631C6.92465 16.4334 5.47451 16.269 4.16952 15.692C2.86452 15.1151 1.76701 14.1531 1.02399 12.935C0.280981 11.7169 -0.0720415 10.3008 0.0122201 8.87643C0.0964818 7.45208 0.614003 6.08749 1.49545 4.96547C1.69745 4.70847 2.08545 4.74747 2.28845 5.00447C2.56645 5.35647 2.88245 5.67647 3.23145 5.95847C3.56345 6.22747 4.01745 5.90947 4.00445 5.48247C3.97252 4.53036 4.16864 3.58441 4.57645 2.72347C5.11019 1.59984 5.97858 0.668918 7.06245 0.0584723C7.30945 -0.0815277 7.61245 0.0424723 7.73945 0.296472C8.35135 1.52444 9.31218 2.54441 10.5015 3.22847ZM11.0015 10.2905C11.0015 11.3513 10.58 12.3688 9.82988 13.1189C9.07973 13.869 8.06232 14.2905 7.00145 14.2905C5.08845 14.2905 3.48145 12.8925 3.09145 11.1085C2.99845 10.6795 3.53145 10.4655 3.90545 10.6955C4.3932 10.9946 4.93889 11.1869 5.50645 11.2595C5.80945 11.2975 6.03745 11.0195 6.01645 10.7155C5.90651 9.20185 6.37665 7.7031 7.33145 6.52347C7.38207 6.46027 7.4489 6.412 7.52481 6.38382C7.60072 6.35564 7.68286 6.3486 7.76245 6.36347C8.67422 6.54036 9.49605 7.02894 10.087 7.74543C10.678 8.46193 11.0013 9.3617 11.0015 10.2905Z" fill="#60F0F8"/>
</g>
</svg>
