<svg width="30" height="34" viewBox="0 0 30 34" fill="none" xmlns="http://www.w3.org/2000/svg">
<path d="M14.4167 1C9.75 1 6.25 2.81132 3.91667 5.22642C1.58333 7.64151 1 10.6604 1 14.283C1 17.9057 2.75 19.1132 3.91667 21.5283C4.85 23.4604 5.08333 24.7484 5.08333 25.1509C5.08333 26.3585 3.33333 26.3585 3.33333 27.566C3.33333 28.5321 4.5 29.3774 5.66667 28.7736C5.27778 29.5786 4.15 31.9132 7.41667 32.3962C10.6833 32.8792 11.5 30.5849 11.5 29.3774C11.6944 30.7862 12.55 33 14.4167 33" stroke="#D9DDFF" stroke-width="1.2"/>
<path d="M13.8333 1C19.1087 1 23.0652 2.81132 25.7029 5.22642C28.3406 7.64151 29 10.6604 29 14.283C29 17.9057 27.0217 19.1132 25.7029 21.5283C24.6478 23.4604 24.3841 24.7484 24.3841 25.1509C24.3841 26.3585 26.3623 26.3585 26.3623 27.566C26.3623 28.5321 24.9167 28.7736 24.3333 28.7736C24.7729 29.5786 25.4391 31.9132 21.7464 32.3962C18.0536 32.8792 17.1304 30.5849 17.1304 29.3774C16.9106 30.7862 16.5268 33 14.4167 33" stroke="#D9DDFF" stroke-width="1.2"/>
</svg>
