<svg width="39" height="39" viewBox="0 0 39 39" fill="none" xmlns="http://www.w3.org/2000/svg">
<g clip-path="url(#clip0_30_145)">
<rect width="39" height="39" rx="19.5" fill="#5840FF"/>
<path d="M31.6656 40.2188C32.3075 40.2213 32.9437 40.0972 33.5375 39.8533C34.1314 39.6095 34.6712 39.2509 35.1262 38.798C35.5811 38.3451 35.9422 37.8068 36.1887 37.2141C36.4351 36.6213 36.5622 35.9857 36.5625 35.3438C36.5625 31.222 34.5321 28.1141 31.3584 26.0886C28.2336 24.0971 24.0216 23.1563 19.5 23.1563C14.9784 23.1563 10.7664 24.0971 7.64156 26.0886C4.46794 28.1117 2.4375 31.2244 2.4375 35.3438C2.4375 36.6367 2.95111 37.8767 3.86536 38.7909C4.77959 39.7052 6.01957 40.2188 7.3125 40.2188L31.6656 40.2188Z" fill="#FF2FFB"/>
<path d="M19.5 4.875C17.2374 4.875 15.0674 5.77383 13.4675 7.37375C11.8676 8.97367 10.9688 11.1436 10.9688 13.4062C10.9688 15.6689 11.8676 17.8388 13.4675 19.4388C15.0674 21.0387 17.2374 21.9375 19.5 21.9375C21.7626 21.9375 23.9326 21.0387 25.5325 19.4388C27.1324 17.8388 28.0312 15.6689 28.0312 13.4062C28.0312 11.1436 27.1324 8.97367 25.5325 7.37375C23.9326 5.77383 21.7626 4.875 19.5 4.875Z" fill="#FA98FF"/>
</g>
<defs>
<clipPath id="clip0_30_145">
<rect width="39" height="39" rx="19.5" fill="white"/>
</clipPath>
</defs>
</svg>
