<svg width="19" height="32" viewBox="0 0 19 32" fill="none" xmlns="http://www.w3.org/2000/svg">
<g id="Vector">
<path id="Vector_2" d="M15.1152 0.136876C15.2842 0.250346 15.415 0.426839 15.4862 0.637522C15.5574 0.848206 15.5648 1.08062 15.5072 1.29681L12.3965 13.0001H18.136C18.3047 13.0001 18.4697 13.0572 18.6107 13.1644C18.7516 13.2717 18.8624 13.4244 18.9292 13.6037C18.9961 13.783 19.0162 13.981 18.9869 14.1734C18.9577 14.3657 18.8805 14.5439 18.7648 14.686L4.94707 31.6851C4.81338 31.8497 4.63546 31.957 4.44234 31.9896C4.24921 32.0221 4.05226 31.978 3.88358 31.8643C3.7149 31.7506 3.58444 31.5742 3.51347 31.3637C3.4425 31.1532 3.4352 30.9211 3.49276 30.7051L6.60347 18.9998H0.86395C0.695279 18.9999 0.53028 18.9428 0.389322 18.8355C0.248365 18.7283 0.137618 18.5756 0.0707544 18.3963C0.00389068 18.217 -0.0161631 18.0189 0.0130683 17.8266C0.0422998 17.6342 0.119537 17.456 0.235245 17.3139L14.0529 0.314866C14.1865 0.150473 14.3641 0.0432182 14.557 0.01054C14.7498 -0.0221383 14.9465 0.021682 15.1152 0.134876V0.136876Z" fill="#FF2FFB"/>
</g>
</svg>
